HIERARCHY
ROOT Hips
{
	OFFSET 0.000000 100.481300 0.000000
	CHANNELS 6 Xposition Yposition Zposition Xrotation Yrotation Zrotation 
	JOINT Spine
	{
		OFFSET -0.279200 12.230698 -2.892100
		CHANNELS 3 Xrotation Yrotation Zrotation
		JOINT Spine1
		{
			OFFSET -0.232667 10.192268 -1.242267
			CHANNELS 3 Xrotation Yrotation Zrotation
			JOINT Spine1_split
			{
				OFFSET -0.232667 10.192268 -1.242267
				CHANNELS 3 Xrotation Yrotation Zrotation
				JOINT Spine2
				{
					OFFSET -0.232667 10.192268 -1.242267
					CHANNELS 3 Xrotation Yrotation Zrotation
					JOINT Neck
					{
						OFFSET -0.418800 17.814194 8.416900
						CHANNELS 3 Xrotation Yrotation Zrotation
						JOINT Head
						{
							OFFSET 0.000000 7.031097 3.806800
							CHANNELS 3 Xrotation Yrotation Zrotation
							JOINT HeadTop_End
							{
								OFFSET 0.000000 24.646606 12.978600
								CHANNELS 3 Xrotation Yrotation Zrotation
								End Site
								{
									OFFSET 0.000000 0.000000 0.000000
								}
							}
						}
					}
					JOINT LeftShoulder
					{
						OFFSET 8.476499 7.247704 -3.868750
						CHANNELS 3 Xrotation Yrotation Zrotation
						JOINT LeftShoulder_split
						{
							OFFSET 8.476499 7.247704 -3.868750
							CHANNELS 3 Xrotation Yrotation Zrotation
							JOINT LeftArm
							{
								OFFSET 9.308998 -2.777710 0.208600
								CHANNELS 3 Xrotation Yrotation Zrotation
								JOINT LeftForeArm
								{
									OFFSET 29.972298 0.000000 0.000000
									CHANNELS 3 Xrotation Yrotation Zrotation
									JOINT LeftHand
									{
										OFFSET 26.026505 0.000000 0.000000
										CHANNELS 3 Xrotation Yrotation Zrotation
										JOINT LeftHandThumb1
										{
											OFFSET 12.240501 -7.147949 9.207150
											CHANNELS 3 Xrotation Yrotation Zrotation
											JOINT LeftHandThumb2
											{
												OFFSET 4.138618 -2.389435 2.389433
												CHANNELS 3 Xrotation Yrotation Zrotation
												JOINT LeftHandThumb3
												{
													OFFSET 2.726913 -1.574387 1.574386
													CHANNELS 3 Xrotation Yrotation Zrotation
													JOINT LeftHandThumb4
													{
														OFFSET 3.941010 -2.275345 2.275342
														CHANNELS 3 Xrotation Yrotation Zrotation
														End Site
														{
															OFFSET 0.000000 0.000000 0.000000
														}
													}
												}
											}
										}
										JOINT LeftHandIndex1
										{
											OFFSET 24.424698 -1.985611 5.953459
											CHANNELS 3 Xrotation Yrotation Zrotation
											JOINT LeftHandIndex2
											{
												OFFSET 6.426697 0.000000 0.000000
												CHANNELS 3 Xrotation Yrotation Zrotation
												JOINT LeftHandIndex3
												{
													OFFSET 5.337898 0.000000 0.000000
													CHANNELS 3 Xrotation Yrotation Zrotation
													JOINT LeftHandIndex4
													{
														OFFSET 4.409401 0.000000 0.000000
														CHANNELS 3 Xrotation Yrotation Zrotation
														End Site
														{
															OFFSET 0.000000 0.000000 0.000000
														}
													}
												}
											}
										}
										JOINT LeftHandMiddle1
										{
											OFFSET 23.810104 0.000000 0.000000
											CHANNELS 3 Xrotation Yrotation Zrotation
											JOINT LeftHandMiddle2
											{
												OFFSET 7.176498 0.000000 0.000000
												CHANNELS 3 Xrotation Yrotation Zrotation
												JOINT LeftHandMiddle3
												{
													OFFSET 6.774902 0.000000 0.000000
													CHANNELS 3 Xrotation Yrotation Zrotation
													JOINT LeftHandMiddle4
													{
														OFFSET 5.403328 0.000000 0.000000
														CHANNELS 3 Xrotation Yrotation Zrotation
														End Site
														{
															OFFSET 0.000000 0.000000 0.000000
														}
													}
												}
											}
										}
										JOINT LeftHandRing1
										{
											OFFSET 22.908401 -0.839279 -6.020567
											CHANNELS 3 Xrotation Yrotation Zrotation
											JOINT LeftHandRing2
											{
												OFFSET 6.337502 0.000000 0.000000
												CHANNELS 3 Xrotation Yrotation Zrotation
												JOINT LeftHandRing3
												{
													OFFSET 5.779297 0.000000 0.000000
													CHANNELS 3 Xrotation Yrotation Zrotation
													JOINT LeftHandRing4
													{
														OFFSET 4.965698 0.000000 0.000000
														CHANNELS 3 Xrotation Yrotation Zrotation
														End Site
														{
															OFFSET 0.000000 0.000000 0.000000
														}
													}
												}
											}
										}
										JOINT LeftHandPinky1
										{
											OFFSET 20.037003 -1.530319 -10.950146
											CHANNELS 3 Xrotation Yrotation Zrotation
											JOINT LeftHandPinky2
											{
												OFFSET 5.254700 0.000000 0.000000
												CHANNELS 3 Xrotation Yrotation Zrotation
												JOINT LeftHandPinky3
												{
													OFFSET 4.810204 0.000000 0.000000
													CHANNELS 3 Xrotation Yrotation Zrotation
													JOINT LeftHandPinky4
													{
														OFFSET 3.647202 0.000000 0.000000
														CHANNELS 3 Xrotation Yrotation Zrotation
														End Site
														{
															OFFSET 0.000000 0.000000 0.000000
														}
													}
												}
											}
										}
									}
								}
							}
						}
					}
					JOINT RightShoulder
					{
						OFFSET -7.570500 7.247704 -3.868750
						CHANNELS 3 Xrotation Yrotation Zrotation
						JOINT RightShoulder_split
						{
							OFFSET -7.570500 7.247704 -3.868750
							CHANNELS 3 Xrotation Yrotation Zrotation
							JOINT RightArm
							{
								OFFSET -9.308998 -2.777710 0.208500
								CHANNELS 3 Xrotation Yrotation Zrotation
								JOINT RightForeArm
								{
									OFFSET -29.972300 0.000000 0.000000
									CHANNELS 3 Xrotation Yrotation Zrotation
									JOINT RightHand
									{
										OFFSET -26.026505 0.000000 0.000000
										CHANNELS 3 Xrotation Yrotation Zrotation
										JOINT RightHandThumb1
										{
											OFFSET -12.240601 -7.148026 9.207092
											CHANNELS 3 Xrotation Yrotation Zrotation
											JOINT RightHandThumb2
											{
												OFFSET -4.138618 -2.389435 2.389433
												CHANNELS 3 Xrotation Yrotation Zrotation
												JOINT RightHandThumb3
												{
													OFFSET -2.726974 -1.574417 1.574421
													CHANNELS 3 Xrotation Yrotation Zrotation
													JOINT RightHandThumb4
													{
														OFFSET -3.941010 -2.275345 2.275343
														CHANNELS 3 Xrotation Yrotation Zrotation
														End Site
														{
															OFFSET 0.000000 0.000000 0.000000
														}
													}
												}
											}
										}
										JOINT RightHandIndex1
										{
											OFFSET -24.424698 -1.985657 5.953444
											CHANNELS 3 Xrotation Yrotation Zrotation
											JOINT RightHandIndex2
											{
												OFFSET -6.426697 0.000000 0.000000
												CHANNELS 3 Xrotation Yrotation Zrotation
												JOINT RightHandIndex3
												{
													OFFSET -5.337898 0.000000 0.000000
													CHANNELS 3 Xrotation Yrotation Zrotation
													JOINT RightHandIndex4
													{
														OFFSET -4.409401 0.000000 0.000000
														CHANNELS 3 Xrotation Yrotation Zrotation
														End Site
														{
															OFFSET 0.000000 0.000000 0.000000
														}
													}
												}
											}
										}
										JOINT RightHandMiddle1
										{
											OFFSET -23.810097 0.000000 0.000000
											CHANNELS 3 Xrotation Yrotation Zrotation
											JOINT RightHandMiddle2
											{
												OFFSET -7.176498 0.000000 0.000000
												CHANNELS 3 Xrotation Yrotation Zrotation
												JOINT RightHandMiddle3
												{
													OFFSET -6.774902 0.000000 0.000000
													CHANNELS 3 Xrotation Yrotation Zrotation
													JOINT RightHandMiddle4
													{
														OFFSET -5.403328 0.000000 0.000000
														CHANNELS 3 Xrotation Yrotation Zrotation
														End Site
														{
															OFFSET 0.000000 0.000000 0.000000
														}
													}
												}
											}
										}
										JOINT RightHandRing1
										{
											OFFSET -22.908302 -0.839325 -6.020576
											CHANNELS 3 Xrotation Yrotation Zrotation
											JOINT RightHandRing2
											{
												OFFSET -6.337502 0.000000 0.000000
												CHANNELS 3 Xrotation Yrotation Zrotation
												JOINT RightHandRing3
												{
													OFFSET -5.779297 0.000000 0.000000
													CHANNELS 3 Xrotation Yrotation Zrotation
													JOINT RightHandRing4
													{
														OFFSET -4.965698 0.000000 0.000000
														CHANNELS 3 Xrotation Yrotation Zrotation
														End Site
														{
															OFFSET 0.000000 0.000000 0.000000
														}
													}
												}
											}
										}
										JOINT RightHandPinky1
										{
											OFFSET -20.037003 -1.530334 -10.950259
											CHANNELS 3 Xrotation Yrotation Zrotation
											JOINT RightHandPinky2
											{
												OFFSET -5.254700 0.000000 0.000000
												CHANNELS 3 Xrotation Yrotation Zrotation
												JOINT RightHandPinky3
												{
													OFFSET -4.810204 0.000000 0.000000
													CHANNELS 3 Xrotation Yrotation Zrotation
													JOINT RightHandPinky4
													{
														OFFSET -3.647202 0.000000 0.000000
														CHANNELS 3 Xrotation Yrotation Zrotation
														End Site
														{
															OFFSET 0.000000 0.000000 0.000000
														}
													}
												}
											}
										}
									}
								}
							}
						}
					}
				}
			}
		}
	}
	JOINT LeftUpLeg
	{
		OFFSET 15.427100 -6.655098 0.678600
		CHANNELS 3 Xrotation Yrotation Zrotation
		JOINT LeftLeg
		{
			OFFSET 4.081073 -39.591068 13.024000
			CHANNELS 3 Xrotation Yrotation Zrotation
			JOINT LeftFoot
			{
				OFFSET -4.081074 -37.707932 -15.979700
				CHANNELS 3 Xrotation Yrotation Zrotation
				JOINT LeftToeBase
				{
					OFFSET 5.346399 -15.068900 20.645000
					CHANNELS 3 Xrotation Yrotation Zrotation
					JOINT LeftToe_End
					{
						OFFSET 2.754700 0.931300 11.300900
						CHANNELS 3 Xrotation Yrotation Zrotation
						End Site
						{
							OFFSET 0.000000 0.000000 0.000000
						}
					}
				}
			}
		}
	}
	JOINT RightUpLeg
	{
		OFFSET -15.569500 -6.655098 0.678600
		CHANNELS 3 Xrotation Yrotation Zrotation
		JOINT RightLeg
		{
			OFFSET -4.081825 -39.591045 13.023800
			CHANNELS 3 Xrotation Yrotation Zrotation
			JOINT RightFoot
			{
				OFFSET 4.081824 -37.707954 -15.979600
				CHANNELS 3 Xrotation Yrotation Zrotation
				JOINT RightToeBase
				{
					OFFSET -5.346400 -15.068900 20.645000
					CHANNELS 3 Xrotation Yrotation Zrotation
					JOINT RightToe_End
					{
						OFFSET -2.754700 0.931300 11.300900
						CHANNELS 3 Xrotation Yrotation Zrotation
						End Site
						{
							OFFSET 0.000000 0.000000 0.000000
						}
					}
				}
			}
		}
	}
}
MOTION
Frames: 4
Frame Time: 0.016667
0.174345 95.032852 -1.463709 1.893914 -2.210295 -0.064842 2.071435 0.293556 0.820677 3.430434 -0.015269 0.185037 0.000000 0.000000 0.000000 3.430503 0.005499 0.178976 -3.527219 -0.011364 -0.032778 -2.723275 -0.261568 0.276206 0.000000 0.000000 -0.000000 0.742836 8.952361 -13.053728 0.000000 0.000000 0.000000 10.737608 -6.254791 -54.002611 0.000004 -32.994260 0.000006 3.018198 -1.471480 -4.081422 -0.482872 3.821571 13.866292 21.372736 38.839830 0.020874 -0.475021 -2.422445 17.056999 -0.000001 0.000000 -0.000000 1.076661 5.650975 -31.107093 2.579631 4.853691 -55.959019 -0.000000 -0.001534 0.014999 -0.000000 -0.000000 -0.000000 2.297561 7.098884 -41.286608 3.978837 5.544430 -71.308015 0.000000 -0.000580 0.005645 0.000000 0.000001 0.000000 2.297562 7.098881 -41.286608 3.978837 5.544429 -71.308015 0.000000 -0.000574 0.005644 -0.000000 -0.000001 -0.000000 2.296089 7.100152 -41.286424 3.978852 5.544431 -71.308042 -0.000000 -0.000583 0.005643 0.000000 0.000001 0.000001 1.078070 -8.352866 11.371670 0.000000 0.000000 0.000000 3.407864 18.890956 61.317333 -0.000006 23.538778 0.000011 1.182694 -2.960235 -1.406723 -5.104757 0.227801 -17.972087 16.981355 -29.890871 7.725583 -6.337773 -28.133409 -4.845048 -0.000000 0.000000 0.000002 0.285285 -3.752858 14.876244 3.775962 -4.573219 79.081276 0.158025 1.204125 -14.952706 0.000000 0.000002 -0.000002 1.456655 -5.863606 32.031593 4.654519 -4.657166 89.967354 0.158029 1.204137 -14.952701 0.000000 -0.000001 -0.000000 1.456656 -5.863607 32.031600 4.654520 -4.657170 89.967361 0.158027 1.204131 -14.952710 0.000000 -0.000001 -0.000000 1.456655 -5.863607 32.031593 4.654525 -4.657173 89.967361 0.158026 1.204128 -14.952703 0.000000 -0.000001 0.000000 -6.334730 -4.998546 10.920598 13.678019 -0.627455 -1.860315 -6.712273 15.141920 -9.533851 -0.003553 0.000003 -0.000000 0.000000 -0.000000 -0.000000 -5.090213 -5.008958 -10.229646 14.323446 0.365251 0.335573 -9.564080 -11.501915 8.720818 0.109676 -0.000008 0.000001 -0.000000 -0.000001 -0.000000 
0.154493 94.860313 -1.493001 1.872878 -2.361277 0.048055 2.291592 -0.002219 0.769973 3.107403 -0.084774 0.120758 0.000000 0.000000 0.000000 3.107845 -0.065907 0.115675 -3.226258 0.031549 -0.023640 -2.059489 0.093460 0.433889 -0.000000 0.000000 -0.000000 0.736510 8.806729 -13.031571 0.000000 0.000000 0.000000 10.933039 -6.745924 -54.051030 0.000003 -32.945274 -0.000016 3.215426 -1.441559 -4.145377 -1.226158 4.012608 13.215939 20.501583 38.197782 1.391599 -0.101260 -3.052177 17.764132 0.000002 -0.000000 -0.000001 1.051747 5.612606 -30.821249 2.451665 4.765045 -54.432786 0.001622 0.137969 -1.346385 0.000000 0.000001 -0.000001 2.190046 7.000227 -40.472747 3.756122 5.464387 -68.986557 0.001900 0.149383 -1.457811 -0.000000 -0.000003 0.000000 2.198445 7.006919 -40.576289 3.751198 5.462497 -68.934784 0.001769 0.144120 -1.406543 -0.000000 -0.000001 0.000000 2.205379 7.014848 -40.679671 3.756143 5.464398 -68.986550 0.001643 0.138860 -1.355270 -0.000000 0.000001 0.000000 1.091566 -8.197194 11.485089 0.000000 0.000000 0.000000 3.504184 18.923104 61.185962 -0.000008 23.701513 0.000023 1.551634 -2.868869 -1.163874 -5.642952 -0.147093 -17.426145 16.936709 -29.156934 6.578087 -5.748157 -26.936407 -5.700921 -0.000001 0.000003 -0.000004 0.293424 -3.774305 15.343516 3.548772 -4.523630 76.216995 0.116328 1.035470 -12.819114 0.000001 0.000002 0.000001 1.392281 -5.779178 31.586736 4.375146 -4.648641 86.524358 0.114421 1.027069 -12.713268 -0.000000 -0.000000 0.000000 1.398787 -5.785309 31.693164 4.370831 -4.648380 86.471110 0.115370 1.031266 -12.766190 0.000000 -0.000002 -0.000000 1.399737 -5.794868 31.799018 4.375152 -4.648647 86.524386 0.116325 1.035472 -12.819113 -0.000000 -0.000001 -0.000000 -7.441652 -5.384577 10.803233 15.576847 -0.738086 -1.821255 -5.978178 15.300927 -10.018584 -2.373245 -0.000008 -0.000000 -0.000000 0.000000 -0.000000 -5.451915 -4.982795 -10.390120 14.921682 0.567693 0.383147 -9.834253 -11.490713 8.647517 -0.200951 0.000006 0.000000 -0.000000 0.000001 0.000000 
0.017649 94.579529 -1.505262 1.851891 -2.494950 0.195912 2.560429 -0.356976 0.690965 2.747828 -0.169165 0.053065 0.000000 0.000000 0.000000 2.748702 -0.152293 0.049086 -2.889078 0.082214 -0.012975 -1.319717 0.514194 0.602907 0.000000 0.000000 -0.000000 0.729838 8.654328 -13.018119 0.000000 0.000000 0.000000 11.156652 -7.294850 -54.080649 -0.000004 -32.921044 -0.000020 3.429492 -1.421107 -4.175576 -2.021784 4.232562 12.518360 19.606058 37.444504 2.843492 0.282574 -3.726814 18.491209 -0.000002 -0.000001 -0.000001 1.025035 5.570820 -30.510117 2.320106 4.668498 -52.832989 0.006746 0.281399 -2.747075 -0.000000 0.000001 -0.000000 2.077960 6.892794 -39.613253 3.527042 5.371196 -66.560685 0.007858 0.303673 -2.964556 -0.000000 -0.000002 -0.000000 2.094708 6.906829 -39.824333 3.517181 5.366925 -66.455227 0.007313 0.292960 -2.860004 0.000000 -0.000001 -0.000000 2.110011 6.922052 -40.035226 3.527056 5.371198 -66.560713 0.006788 0.282257 -2.755453 -0.000000 -0.000001 -0.000000 1.096790 -8.002337 11.568717 0.000000 0.000000 0.000000 3.614133 18.945275 61.044638 -0.000006 23.957203 0.000008 1.916263 -2.796679 -0.913607 -6.220036 -0.561324 -16.846219 16.880401 -28.337786 5.350627 -5.130546 -25.610254 -6.616693 0.000000 0.000002 0.000003 0.301840 -3.796159 15.831045 3.306232 -4.457341 73.119948 0.078732 0.853615 -10.538791 -0.000001 0.000000 -0.000001 1.323350 -5.686538 31.092848 4.074453 -4.620650 82.804296 0.075491 0.836021 -10.319087 0.000000 0.000000 -0.000000 1.336521 -5.699519 31.313774 4.065550 -4.619524 82.693763 0.077101 0.844822 -10.428942 -0.000000 0.000001 -0.000000 1.339908 -5.718444 31.533733 4.074463 -4.620661 82.804289 0.078729 0.853618 -10.538791 -0.000000 0.000000 -0.000000 -9.121106 -5.086548 10.916117 18.060506 -0.918892 -1.815238 -4.831320 14.640693 -10.789138 -5.458067 0.000004 -0.000005 0.000000 -0.000000 0.000000 -5.951410 -4.909369 -10.531496 15.887032 0.792130 0.452942 -10.347688 -11.534035 8.478199 -0.267548 0.000016 -0.000000 0.000000 0.000002 -0.000000 
-0.110660 93.837067 -1.473839 1.831391 -2.623622 0.118715 2.856493 -0.728761 0.835627 2.373875 -0.260962 -0.016101 0.000000 0.000000 0.000000 2.375220 -0.246129 -0.018902 -2.534352 0.136654 -0.001104 -0.540678 0.969613 0.774560 0.000001 -0.000000 -0.000000 0.723120 8.496002 -13.005184 0.000000 0.000000 0.000000 11.390000 -7.878151 -54.103988 -0.000007 -32.909023 -0.000008 3.676872 -1.401123 -4.194160 -2.847525 4.478022 11.792735 18.719723 36.603851 4.328855 0.658171 -4.423256 19.224640 -0.000001 -0.000000 0.000001 0.997334 5.526774 -30.182934 2.187624 4.565369 -51.187200 0.015560 0.427137 -4.171893 0.000002 0.000001 -0.000001 1.964219 6.778784 -38.725246 3.296133 5.265521 -64.069804 0.018082 0.460453 -4.497930 -0.000000 0.000001 0.000000 1.989070 6.800764 -39.046289 3.281443 5.258375 -63.909493 0.016827 0.444194 -4.338838 0.000000 0.000002 -0.000000 2.012545 6.823820 -39.367195 3.296144 5.265521 -64.069845 0.015617 0.427935 -4.179752 -0.000000 -0.000000 -0.000000 1.096975 -7.781049 11.642711 0.000000 0.000000 0.000000 3.743080 18.979036 60.878876 0.000003 24.271412 -0.000010 2.271885 -2.732260 -0.657017 -6.820226 -1.005233 -16.249162 16.817251 -27.461879 4.075795 -4.497569 -24.206307 -7.576612 -0.000001 0.000002 0.000001 0.310437 -3.818217 16.330806 3.056552 -4.374040 69.877842 0.047341 0.663064 -8.167509 0.000000 0.000000 -0.000000 1.252315 -5.588261 30.568163 3.762433 -4.570594 78.911498 0.043502 0.635761 -7.828933 0.000000 0.000001 -0.000001 1.272041 -5.608660 30.908546 3.748867 -4.567928 78.741166 0.045402 0.649416 -7.998216 0.000000 0.000001 -0.000000 1.278695 -5.636917 31.247665 3.762440 -4.570606 78.911491 0.047341 0.663070 -8.167501 0.000000 0.000001 -0.000000 -12.694620 -4.515024 10.627836 23.922341 -0.415223 -1.769902 -4.319882 13.467403 -9.496877 -10.826742 0.000002 0.000003 -0.000000 -0.000001 -0.000000 -6.882348 -4.743319 -10.536352 17.914548 1.170792 0.606559 -11.477435 -11.733842 8.235563 -0.120335 -0.000001 0.000000 0.000000 -0.000001 0.000000 
